<svg width="61" height="56" viewBox="0 0 61 56" fill="none" xmlns="http://www.w3.org/2000/svg">
<path d="M31.2687 0.250317C31.064 0.69817 31.0768 1.12043 31.3198 1.69624C31.4222 1.95216 32.0362 3.55163 32.6758 5.24067C33.3026 6.92971 33.955 8.65714 34.1213 9.0794C35.0039 11.4466 36.475 15.3237 37.4472 17.9085C38.0612 19.5208 38.688 21.197 38.8543 21.6193C39.2253 22.6301 40.7475 26.6736 42.3465 30.8962C43.05 32.7644 44.3804 36.296 45.3142 38.7656C46.248 41.2224 47.7191 45.1379 48.6018 47.4667C49.4716 49.7828 50.5206 52.5722 50.9171 53.6343C51.6207 55.5025 51.659 55.592 52.0044 55.592C52.3882 55.592 52.401 55.592 52.2219 55.1826C52.1579 55.0162 51.787 54.0565 51.4032 53.0329C50.1496 49.6932 48.1796 44.4597 47.1819 41.7982C46.6574 40.4546 45.634 37.7035 44.6746 35.1188C44.4827 34.5942 43.8176 32.8284 43.2036 31.2161C42.5895 29.591 41.9244 27.838 41.7325 27.3134C40.8498 24.9206 37.4855 15.9379 37.3193 15.5413C37.1146 15.055 36.2831 12.8286 35.7203 11.3187C35.4516 10.6021 32.1001 1.70903 31.5117 0.147949C31.435 -0.0695763 31.4094 -0.0567818 31.2687 0.250317Z" fill="#181818"/>
<path d="M38.9436 0.429386C38.7773 0.979603 38.7005 0.762074 40.8368 6.39222C41.8729 9.13051 43.7661 14.1337 46.5036 21.4272C47.527 24.14 48.8573 27.6716 49.4713 29.2967C50.0854 30.9089 50.7122 32.5852 50.8785 33.0074C51.3262 34.223 53.0147 38.676 53.9869 41.2607C55.765 45.944 58.656 53.6342 59.0013 54.5683C59.3084 55.4 59.3979 55.528 59.6921 55.5664C59.8712 55.592 60.0247 55.5664 60.0247 55.5152C60.0247 55.4256 58.1827 50.4481 56.5453 46.1231C56.2639 45.3809 55.7906 44.1142 55.4836 43.308C55.1766 42.5019 54.6137 41.0048 54.2299 39.9811C53.6415 38.4328 49.9319 28.5801 48.9597 25.9697C48.8062 25.5475 48.141 23.7945 47.4886 22.067C46.8362 20.3396 46.1454 18.497 45.9536 17.9724C45.7617 17.4478 44.4057 13.8394 42.9474 9.97503C40.1844 2.64305 39.6215 1.14595 39.4041 0.506161C39.1866 -0.0952415 39.0971 -0.10804 38.9436 0.429386Z" fill="#181818"/>
<path d="M19.3717 0.493431C19.231 0.877304 19.2566 1.03085 19.6787 2.1185C19.9218 2.78387 20.7405 4.93356 21.4696 6.90411C22.2115 8.87466 22.8895 10.6917 22.9919 10.9348C23.0942 11.1779 23.4907 12.2399 23.8873 13.302C24.2838 14.3513 24.6932 15.4261 24.7827 15.6692C24.8851 15.9123 25.2816 16.9744 25.6782 18.0364C26.0747 19.0857 26.4841 20.1605 26.5864 20.4037C26.6759 20.6468 27.1748 21.9391 27.6737 23.2827C28.1726 24.6135 28.9657 26.7504 29.4518 28.0171C29.9251 29.2839 31.1531 32.534 32.1765 35.2468C33.1998 37.9595 34.7988 42.1821 35.7199 44.6516C36.6537 47.1084 37.5363 49.4757 37.7026 49.8979C37.8561 50.3202 38.2527 51.3822 38.598 52.2651C38.9306 53.148 39.34 54.2357 39.5063 54.6835C39.8644 55.6432 39.8389 55.6176 40.2226 55.5664C40.5424 55.5281 40.5424 55.5281 39.4679 52.713C38.8923 51.1647 38.2655 49.5268 38.0992 49.0662C37.9329 48.6055 36.6025 45.0611 35.1442 41.1968C33.6859 37.3197 32.33 33.7241 32.1381 33.1994C31.9462 32.6748 31.281 30.909 30.667 29.2967C30.053 27.6717 29.3878 25.9186 29.196 25.394C29.0041 24.8694 28.3133 23.0268 27.6609 21.2994C27.0085 19.5719 26.3178 17.7293 26.1259 17.2047C25.934 16.6801 25.2688 14.9143 24.6548 13.302C24.0408 11.6769 23.3756 9.92392 23.1837 9.39929C20.4463 2.00333 19.6915 0.0583763 19.602 0.0583763C19.5508 0.0583763 19.4613 0.250313 19.3717 0.493431Z" fill="#181818"/>
<path d="M23.44 0.493336C23.3376 0.800434 23.3376 1.01796 23.4528 1.28667C23.5295 1.49141 23.7598 2.09281 23.9516 2.61744C24.1435 3.14206 24.8983 5.12541 25.6146 7.03198C26.9322 10.5124 28.6463 15.0677 31.307 22.131C32.8549 26.2384 33.8782 28.9511 35.6563 33.6472C36.2703 35.2595 36.9355 37.0253 37.1274 37.5499C37.3192 38.0745 38.2403 40.5185 39.1741 42.9881C40.1079 45.4449 41.5534 49.2836 42.3849 51.4973C43.8687 55.4768 43.8943 55.528 44.2653 55.5663L44.649 55.6047L44.0734 54.0948C43.05 51.3565 42.3849 49.6035 41.7964 48.068C41.4894 47.2491 40.9777 45.8799 40.6707 45.0354C40.3509 44.1909 39.3404 41.4782 38.4066 39.0214C37.4727 36.5518 36.5517 34.1078 36.3598 33.5832C36.168 33.0586 34.812 29.4502 33.3537 25.5858C31.8955 21.7087 30.5395 18.1131 30.3476 17.5885C29.9511 16.5136 24.8727 3.0141 24.3738 1.72173C24.1947 1.26108 23.99 0.698071 23.9133 0.467747C23.747 -0.056881 23.6191 -0.056881 23.44 0.493336Z" fill="#181818"/>
<path d="M27.3156 0.467896C27.1749 0.954136 27.0342 0.557468 29.7717 7.79988C30.8078 10.5382 32.3045 14.5177 33.0976 16.629C33.8907 18.7403 35.042 21.7857 35.656 23.4107C36.27 25.023 36.8968 26.6992 37.0631 27.1215C37.2166 27.5438 37.6132 28.6058 37.9586 29.4887C38.2911 30.3716 38.7261 31.5232 38.9179 32.0479C39.1098 32.5725 39.7622 34.2999 40.3634 35.8866C41.6554 39.3159 45.0965 48.4265 45.5058 49.5141C47.9491 56.0527 47.7444 55.5921 48.1409 55.5921H48.5119L48.2049 54.786C48.0386 54.3509 47.7188 53.5064 47.4886 52.905C47.2711 52.3036 47.0025 51.587 46.8873 51.3055C46.5036 50.2946 40.2867 33.7625 39.9413 32.8156C39.7494 32.291 38.3935 28.6826 36.9352 24.8183C35.4769 20.9411 34.1593 17.4351 33.993 17.0128C33.8395 16.5906 32.4836 12.995 30.9869 9.01548C28.275 1.81145 27.661 0.148003 27.661 0.0968208C27.661 0.071228 27.6099 0.0584335 27.5459 0.0584335C27.4947 0.0584335 27.3796 0.25037 27.3156 0.467896Z" fill="#181818"/>
<path d="M35.0806 0.365555C35.0166 0.557491 34.9526 0.80061 34.9526 0.890179C34.9526 1.04373 35.6306 2.92471 36.1679 4.28106C36.3725 4.79289 37.2296 7.05774 37.7669 8.50367C37.9587 9.02829 38.6239 10.7813 39.2379 12.4064C39.852 14.0186 40.4788 15.6949 40.6451 16.1171C41.016 17.128 42.5383 21.1715 44.1373 25.3941C47.7318 34.9269 48.8191 37.806 49.0878 38.5098C50.0599 41.1201 51.224 44.2167 52.4137 47.3388C53.1684 49.3094 53.8336 51.0624 53.8847 51.2415C53.9487 51.4207 54.3325 52.4571 54.7546 53.5448C55.4454 55.3618 55.5349 55.5281 55.8419 55.5665C56.0338 55.5921 56.1873 55.5793 56.1873 55.5409C56.1873 55.4897 54.0382 49.7316 52.6951 46.1872C52.1322 44.7157 51.6461 43.3977 51.3263 42.5404C51.1345 42.0158 49.7785 38.4074 48.3202 34.5431C46.8619 30.6659 45.506 27.0703 45.3141 26.5457C45.1222 26.0211 43.7663 22.4127 42.308 18.5483C40.8497 14.6712 39.4938 11.0756 39.3019 10.551C39.11 10.0264 38.4448 8.26054 37.8308 6.64828C37.2168 5.02322 36.5516 3.2702 36.3598 2.74557C35.2724 -0.19746 35.2852 -0.171867 35.0806 0.365555Z" fill="#181818"/>
<path d="M15.5214 0.685326C15.3807 1.17157 15.4063 1.29952 16.0971 3.09093C16.8006 4.97191 18.0926 8.36279 19.1543 11.1907C19.4614 11.9968 20.1649 13.865 20.7278 15.3493C21.2906 16.8208 22.557 20.1989 23.5548 22.8348C25.7294 28.6313 26.7528 31.3568 27.9296 34.479C28.4285 35.7841 29.0809 37.5116 29.3879 38.3177C29.6949 39.1238 30.3473 40.8513 30.8334 42.1564C31.3323 43.4616 32.151 45.6113 32.6499 46.9548C33.9291 50.3457 34.8245 52.7257 35.4641 54.4148C35.9502 55.6816 36.0525 55.8479 36.3084 55.8479C36.4747 55.8479 36.6154 55.7967 36.6154 55.7327C36.6154 55.6688 35.6944 53.148 34.5559 50.141C33.4174 47.1212 32.3684 44.3061 32.2021 43.8839C31.7288 42.6171 27.8273 32.2269 25.6143 26.3536C24.4758 23.321 23.3757 20.4164 23.1838 19.8918C22.9919 19.3672 21.636 15.7587 20.1777 11.8944C18.7194 8.0173 17.3635 4.42169 17.1716 3.89706C16.3785 1.73458 15.8412 0.378227 15.7645 0.27586C15.7133 0.224678 15.611 0.40382 15.5214 0.685326Z" fill="#181818"/>
<path d="M13.3981 5.66289C13.283 5.99558 12.9376 6.92968 12.6306 7.73581C12.3236 8.54194 10.8269 12.547 9.30471 16.6289C7.78246 20.7107 6.2858 24.7286 5.966 25.5475C5.659 26.3792 5.14732 27.7356 4.84031 28.5545C4.52051 29.3863 3.2669 32.7387 2.05167 36.0145C0.0561208 41.3503 -0.148551 41.9645 0.0689126 42.0029C0.209624 42.0285 0.363128 42.0029 0.414295 41.9389C0.465463 41.8877 2.44822 36.6671 4.81473 30.3587C7.18124 24.0376 9.17679 18.7402 9.24075 18.5866C9.30471 18.4203 9.56055 17.7293 9.80359 17.0511C10.0594 16.373 10.3153 15.682 10.392 15.5156C10.4944 15.2725 12.4771 9.96227 13.6668 6.73774C13.9482 5.96999 13.9738 5.26622 13.7179 5.11267C13.6668 5.07429 13.5261 5.3302 13.3981 5.66289Z" fill="#181818"/>
<path d="M15.6752 12.4446C15.0228 14.2104 12.7203 20.3396 10.9422 25.074C10.4177 26.4815 9.81648 28.0682 9.62461 28.5928C9.22806 29.6677 8.40937 31.843 6.15799 37.8442C5.32651 40.0834 4.63574 41.9388 4.63574 41.9772C4.63574 42.0156 4.75087 42.0284 4.90437 42.0028C5.12184 41.9772 5.36488 41.4398 6.38824 38.7015C7.05342 36.9101 8.24307 33.6855 9.04897 31.5359C9.84207 29.3862 10.9038 26.5327 11.4027 25.2019C11.8888 23.8584 13.168 20.4419 14.2169 17.6013C15.2787 14.7478 16.1485 12.291 16.1485 12.1375C16.1485 11.5872 15.931 11.7152 15.6752 12.4446Z" fill="#181818"/>
<path d="M16.2891 22.2719C14.3959 27.3518 13.833 28.8617 12.6306 32.0095C12.3236 32.8412 11.6328 34.6966 11.0955 36.1425C10.5583 37.5884 9.86751 39.431 9.54771 40.2372C9.2407 41.0561 8.98486 41.7854 8.98486 41.875C8.98486 41.9646 9.0872 42.0286 9.22791 42.0286C9.39421 42.0286 9.53492 41.8366 9.7268 41.3504C10.2001 40.1348 11.1083 37.7036 13.526 31.2161C14.8436 27.6973 16.4809 23.2956 17.1845 21.4274C17.8753 19.5592 18.4509 17.9213 18.4381 17.7806C18.3997 16.7569 18.1695 17.2687 16.2891 22.2719Z" fill="#181818"/>
<path d="M20.4337 23.5387C20.3186 23.8586 19.4999 26.0338 18.3486 29.1048C17.8498 30.41 16.5578 33.8521 15.4704 36.7439L13.5005 42.0286H13.8459C14.0761 42.0286 14.2296 41.9518 14.268 41.7982C14.3064 41.6831 14.7925 40.3651 15.3553 38.8936C15.9182 37.4093 16.8648 34.9141 17.466 33.3274C18.0672 31.7408 19.0778 29.0664 19.7174 27.3902C20.357 25.7012 20.8814 24.2552 20.8814 24.1913C20.8687 24.1145 20.7919 23.8714 20.7024 23.6666C20.5489 23.3211 20.5233 23.3083 20.4337 23.5387Z" fill="#181818"/>
<path d="M22.4165 31.0626C22.4165 31.1138 21.8408 32.6493 20.6895 35.6947C20.0755 37.3069 19.3208 39.3031 19.0266 40.1092C18.7196 40.9153 18.4382 41.6831 18.387 41.7982C18.3102 41.9774 18.3614 42.0286 18.6044 42.0286C18.8219 42.0286 18.9498 41.9262 19.065 41.6063C21.4315 35.4387 22.8002 31.6256 22.7235 31.3441C22.6851 31.165 22.5955 31.0242 22.5316 31.0242C22.4676 31.0242 22.4165 31.037 22.4165 31.0626Z" fill="#181818"/>
<path d="M24.6296 38.4457C24.5528 38.6888 24.233 39.5717 23.9004 40.4034C23.5806 41.2479 23.312 41.9517 23.312 41.9901C23.312 42.0157 23.4655 42.0285 23.6574 42.0029C23.9772 41.9645 24.0539 41.8366 24.5528 40.557C25.1541 38.9959 25.1668 38.9319 24.9238 38.3817L24.7575 37.9978L24.6296 38.4457Z" fill="#181818"/>
<path d="M3.95753 44.4214C3.47143 45.5346 1.56543 50.5378 1.56543 50.6913C1.56543 50.7809 1.70614 50.8577 1.87244 50.8577C2.14107 50.8577 2.23061 50.7297 2.53762 49.962L2.883 49.0663H4.55875H6.24729L6.55429 49.9236C6.83572 50.6785 6.92526 50.7937 7.23227 50.8321C7.42415 50.8577 7.57765 50.8321 7.57765 50.7681C7.57765 50.7169 6.98922 49.1558 6.27287 47.3004L4.96809 43.9479H4.55875C4.22616 43.9479 4.13661 44.0247 3.95753 44.4214ZM5.31347 46.5967C5.69723 47.5947 5.97865 48.4521 5.94028 48.4904C5.86353 48.5672 3.10046 48.58 3.10046 48.5032C3.10046 48.4777 3.39468 47.6843 3.74006 46.7502C4.09824 45.8033 4.41804 44.9588 4.44362 44.8564C4.482 44.7541 4.53316 44.7029 4.55875 44.7285C4.58433 44.7541 4.92971 45.5986 5.31347 46.5967Z" fill="#181818"/>
<path d="M8.85693 47.4155V50.8704L9.15115 50.832C9.41978 50.7936 9.43257 50.7424 9.47095 49.3477L9.50932 47.9145H10.6222H11.7351L12.2852 48.9894C13.1678 50.6912 13.2957 50.8576 13.6539 50.8576C13.833 50.8576 13.9737 50.8064 13.9737 50.7424C13.9737 50.6784 13.6283 50.013 13.2062 49.2581C12.7841 48.5031 12.4387 47.8634 12.4387 47.8378C12.4387 47.8122 12.6178 47.697 12.8224 47.5946C13.6795 47.1468 14.0121 45.7648 13.462 44.8819C13.0143 44.1398 12.4259 43.9478 10.5199 43.9478H8.85693V47.4155ZM12.7073 44.9587C13.3213 45.5857 13.1422 46.7757 12.3747 47.1212C12.1956 47.2108 11.4793 47.2747 10.7757 47.2747H9.49653V45.9312V44.5876H10.9164C12.3108 44.5876 12.3363 44.5876 12.7073 44.9587Z" fill="#181818"/>
<path d="M15.6623 47.3643L15.7007 50.7936L15.9949 50.832L16.2763 50.8704V47.4155V43.9478H15.9565H15.6367L15.6623 47.3643Z" fill="#181818"/>
<path d="M20.242 44.2039C20.0501 44.5621 17.6836 50.6273 17.6836 50.7553C17.6836 50.8193 17.8371 50.8577 18.029 50.8321C18.3104 50.7937 18.4127 50.6657 18.6942 49.962L19.0267 49.1302L20.7281 49.0918C22.0201 49.0663 22.4294 49.0918 22.4806 49.2198C23.0306 50.7937 23.069 50.8705 23.4144 50.8321C23.6063 50.8065 23.747 50.7297 23.7342 50.6401C23.7086 50.5506 23.1586 49.1174 22.5062 47.4412C21.841 45.7649 21.2653 44.2934 21.227 44.1655C21.1118 43.8584 20.4211 43.8712 20.242 44.2039ZM21.4956 46.6479C21.8666 47.5947 22.1608 48.4137 22.1608 48.4649C22.1608 48.516 21.534 48.5544 20.7537 48.5544C19.7815 48.5544 19.3465 48.5032 19.3465 48.4009C19.3465 48.1066 20.6769 44.7157 20.7537 44.8053C20.8048 44.8692 21.1374 45.6882 21.4956 46.6479Z" fill="#181818"/>
<path d="M1.41221 52.3418C1.25871 52.4954 1.28429 55.9758 1.4378 55.9758C1.51455 55.9758 1.56572 55.6303 1.56572 55.2081C1.56572 54.4787 1.57851 54.4403 1.87272 54.4403C3.13913 54.4403 4.02177 53.1352 3.15192 52.5594C2.80654 52.329 1.56572 52.1755 1.41221 52.3418ZM2.99842 52.6745C3.25426 52.8793 3.30542 53.1224 3.1903 53.5574C3.08796 53.9413 2.62745 54.1844 2.01344 54.1844H1.56572V53.3527V52.521H2.17973C2.52511 52.521 2.88329 52.5977 2.99842 52.6745Z" fill="#181818"/>
<path d="M4.37988 54.1076C4.37988 55.2721 4.43105 55.9758 4.5078 55.9758C4.58455 55.9758 4.63572 55.6175 4.63572 55.1441V54.3124H5.18578C5.83817 54.3124 6.03005 54.4787 6.4266 55.3872C6.5801 55.7199 6.7336 55.963 6.77198 55.9246C6.87431 55.8223 6.4266 54.8114 6.11959 54.4659C5.87654 54.1844 5.87654 54.1844 6.14517 53.8901C6.31147 53.7238 6.4266 53.4295 6.4266 53.1991C6.4266 52.6233 6.04284 52.3546 5.1474 52.2906L4.37988 52.2395V54.1076Z" fill="#181818"/>
<path d="M8.38385 52.521C7.30932 53.1736 7.25816 55.1186 8.28151 55.7968C8.94669 56.2318 10.0084 55.9375 10.4434 55.2082C10.5713 54.9778 10.648 54.5556 10.648 54.0565C10.648 53.3016 10.6224 53.2376 10.1491 52.7642C9.5735 52.1883 9.04903 52.1116 8.38385 52.521ZM9.91888 52.7514C10.5585 53.3272 10.6864 54.2485 10.2643 55.0802C9.97005 55.6688 9.68863 55.8479 9.07461 55.8479C8.20476 55.8479 7.61633 55.029 7.74425 53.9798C7.88496 52.6746 9.08741 51.9964 9.91888 52.7514Z" fill="#181818"/>
</svg>
