<svg width="24" height="25" viewBox="0 0 24 25" fill="none" xmlns="http://www.w3.org/2000/svg">
<path d="M12.0001 7.77686C10.8748 7.77686 9.79566 8.22386 8.99999 9.01952C8.20433 9.81519 7.75732 10.8943 7.75732 12.0196C7.75732 13.1448 8.20433 14.224 8.99999 15.0197C9.79566 15.8153 10.8748 16.2623 12.0001 16.2623C13.1253 16.2623 14.2045 15.8153 15.0001 15.0197C15.7958 14.224 16.2428 13.1448 16.2428 12.0196C16.2428 10.8943 15.7958 9.81519 15.0001 9.01952C14.2045 8.22386 13.1253 7.77686 12.0001 7.77686Z" fill="#181818"/>
<path fill-rule="evenodd" clip-rule="evenodd" d="M5.17249 0.377244C9.71029 -0.125748 14.2898 -0.125748 18.8276 0.377244C21.3066 0.654001 23.3053 2.60566 23.5964 5.09386C24.1345 9.69515 24.1345 14.3435 23.5964 18.9448C23.3053 21.433 21.3066 23.3846 18.8289 23.6627C14.2906 24.1658 9.71072 24.1658 5.17249 23.6627C2.69342 23.3846 0.69477 21.433 0.403653 18.9461C-0.134551 14.3443 -0.134551 9.69558 0.403653 5.09386C0.69477 2.60566 2.69342 0.654001 5.17249 0.377244ZM18.5273 4.18657C18.1811 4.18657 17.849 4.32411 17.6042 4.56893C17.3594 4.81375 17.2219 5.1458 17.2219 5.49203C17.2219 5.83825 17.3594 6.1703 17.6042 6.41512C17.849 6.65994 18.1811 6.79748 18.5273 6.79748C18.8735 6.79748 19.2056 6.65994 19.4504 6.41512C19.6952 6.1703 19.8328 5.83825 19.8328 5.49203C19.8328 5.1458 19.6952 4.81375 19.4504 4.56893C19.2056 4.32411 18.8735 4.18657 18.5273 4.18657ZM5.79911 12.0193C5.79911 10.3747 6.45242 8.7975 7.61532 7.6346C8.77821 6.4717 10.3554 5.81839 12 5.81839C13.6446 5.81839 15.2218 6.4717 16.3847 7.6346C17.5476 8.7975 18.201 10.3747 18.201 12.0193C18.201 13.6639 17.5476 15.2411 16.3847 16.404C15.2218 17.5669 13.6446 18.2202 12 18.2202C10.3554 18.2202 8.77821 17.5669 7.61532 16.404C6.45242 15.2411 5.79911 13.6639 5.79911 12.0193Z" fill="#181818"/>
</svg>
