<svg width="24" height="25" viewBox="0 0 24 25" fill="none" xmlns="http://www.w3.org/2000/svg">
<path d="M21.3333 0.0200195C22.0406 0.0200195 22.7189 0.300971 23.219 0.801068C23.719 1.30116 24 1.97944 24 2.68669V21.3534C24 22.0606 23.719 22.7389 23.219 23.239C22.7189 23.7391 22.0406 24.02 21.3333 24.02H2.66667C1.95942 24.02 1.28115 23.7391 0.781048 23.239C0.280951 22.7389 0 22.0606 0 21.3534V2.68669C0 1.97944 0.280951 1.30116 0.781048 0.801068C1.28115 0.300971 1.95942 0.0200195 2.66667 0.0200195H21.3333ZM20.6667 20.6867V13.62C20.6667 12.4672 20.2087 11.3616 19.3936 10.5465C18.5784 9.7313 17.4728 9.27335 16.32 9.27335C15.1867 9.27335 13.8667 9.96669 13.2267 11.0067V9.52669H9.50667V20.6867H13.2267V14.1134C13.2267 13.0867 14.0533 12.2467 15.08 12.2467C15.5751 12.2467 16.0499 12.4434 16.3999 12.7934C16.75 13.1435 16.9467 13.6183 16.9467 14.1134V20.6867H20.6667ZM5.17333 7.43335C5.76742 7.43335 6.33717 7.19735 6.75725 6.77727C7.17733 6.35719 7.41333 5.78744 7.41333 5.19335C7.41333 3.95335 6.41333 2.94002 5.17333 2.94002C4.57571 2.94002 4.00257 3.17742 3.57999 3.60001C3.1574 4.02259 2.92 4.59573 2.92 5.19335C2.92 6.43335 3.93333 7.43335 5.17333 7.43335ZM7.02667 20.6867V9.52669H3.33333V20.6867H7.02667Z" fill="#181818"/>
</svg>
