<svg width="24" height="20" viewBox="0 0 24 20" fill="none" xmlns="http://www.w3.org/2000/svg">
<path d="M24 2.57965C23.1015 2.97713 22.1487 3.23825 21.1731 3.35437C22.201 2.73876 22.9701 1.77047 23.3371 0.629883C22.3717 1.20445 21.3132 1.60712 20.2111 1.82494C19.4701 1.03206 18.4879 0.506213 17.4171 0.329159C16.3464 0.152104 15.2472 0.333758 14.2903 0.845879C13.3335 1.358 12.5727 2.1719 12.1261 3.16104C11.6796 4.15018 11.5723 5.25914 11.821 6.31552C9.86296 6.21755 7.94737 5.70884 6.19867 4.82242C4.44998 3.936 2.90727 2.6917 1.67072 1.17031C1.23307 1.92201 1.00309 2.77654 1.00432 3.64637C1.00432 5.35359 1.87441 6.86183 3.19427 7.74488C2.4125 7.72022 1.64794 7.5091 0.964286 7.1291V7.18915C0.96425 8.32636 1.35757 9.42858 2.07755 10.3089C2.79752 11.1891 3.79982 11.7933 4.91444 12.0188C4.18875 12.2157 3.42774 12.2447 2.68917 12.1036C3.00344 13.0825 3.61603 13.9385 4.44113 14.5519C5.26623 15.1652 6.26251 15.5051 7.29042 15.5239C6.26887 16.3263 5.09916 16.9193 3.8482 17.2693C2.59725 17.6192 1.28959 17.719 0 17.5632C2.25085 19.0106 4.871 19.7791 7.5471 19.7767C16.606 19.7767 21.5581 12.2731 21.5581 5.76568C21.5581 5.55375 21.5534 5.33946 21.544 5.12871C22.5075 4.43211 23.3392 3.56814 24 2.57965Z" fill="#181818"/>
</svg>
