<svg width="36" height="36" viewBox="0 0 36 36" fill="none" xmlns="http://www.w3.org/2000/svg">
<rect width="36" height="36" rx="18" fill="#181818" fill-opacity="0.1"/>
<path fill-rule="evenodd" clip-rule="evenodd" d="M26 16.8059V11.6059C26 10.4588 25.5106 10 24.2947 10H21.2053C19.9894 10 19.5 10.4588 19.5 11.6059V16.8059C19.5 17.9529 19.9894 18.4118 21.2053 18.4118H24.2947C25.5106 18.4118 26 17.9529 26 16.8059V16.8059Z" stroke="#181818" stroke-width="1.5" stroke-linecap="round" stroke-linejoin="round"/>
<path opacity="0.4" fill-rule="evenodd" clip-rule="evenodd" d="M26 24.3942V23.0177C26 21.8707 25.5106 21.4119 24.2947 21.4119H21.2053C19.9894 21.4119 19.5 21.8707 19.5 23.0177V24.3942C19.5 25.5413 19.9894 26.0001 21.2053 26.0001H24.2947C25.5106 26.0001 26 25.5413 26 24.3942Z" stroke="#181818" stroke-width="1.5" stroke-linecap="round" stroke-linejoin="round"/>
<path fill-rule="evenodd" clip-rule="evenodd" d="M16.5 19.194V24.394C16.5 25.5411 16.0106 25.9999 14.7947 25.9999H11.7053C10.4894 25.9999 10 25.5411 10 24.394V19.194C10 18.047 10.4894 17.5881 11.7053 17.5881H14.7947C16.0106 17.5881 16.5 18.047 16.5 19.194V19.194Z" stroke="#181818" stroke-width="1.5" stroke-linecap="round" stroke-linejoin="round"/>
<path opacity="0.4" fill-rule="evenodd" clip-rule="evenodd" d="M16.5 11.6059V12.9824C16.5 14.1294 16.0106 14.5882 14.7947 14.5882H11.7053C10.4894 14.5882 10 14.1294 10 12.9824V11.6059C10 10.4588 10.4894 10 11.7053 10H14.7947C16.0106 10 16.5 10.4588 16.5 11.6059Z" stroke="#181818" stroke-width="1.5" stroke-linecap="round" stroke-linejoin="round"/>
</svg>
